<?xml version="1.0" standalone="no"?>
<!DOCTYPE svg PUBLIC "-//W3C//DTD SVG 20010904//EN"
 "http://www.w3.org/TR/2001/REC-SVG-20010904/DTD/svg10.dtd">
<svg version="1.0" xmlns="http://www.w3.org/2000/svg"
 width="300.000000pt" height="287.000000pt" viewBox="0 0 300.000000 287.000000"
 preserveAspectRatio="xMidYMid meet">
<metadata>
Created by potrace 1.10, written by Peter Selinger 2001-2011
</metadata>
<g transform="translate(0.000000,287.000000) scale(0.100000,-0.100000)"
fill="#000000" stroke="none">
<path d="M1229 2733 c-61 -58 -82 -72 -162 -102 -78 -30 -107 -35 -194 -39
l-102 -3 -68 -77 c-151 -169 -143 -155 -143 -246 0 -68 -6 -96 -35 -176 -41
-108 -46 -117 -114 -195 l-51 -58 0 -160 0 -159 33 -30 c17 -17 51 -46 74 -65
25 -21 61 -69 92 -123 49 -87 51 -93 51 -168 l0 -77 90 -90 c49 -49 90 -94 90
-100 0 -6 -12 -28 -26 -49 l-26 -38 23 -44 24 -43 120 -3 120 -3 3 -118 c1
-64 -2 -125 -7 -135 -16 -30 -78 -43 -233 -49 -112 -4 -151 -3 -163 7 -12 10
-15 36 -15 121 0 130 1 128 -127 193 -49 24 -126 69 -172 100 -47 31 -88 56
-92 56 -10 0 -23 -221 -15 -257 11 -48 62 -88 153 -118 115 -39 121 -46 125
-177 l3 -107 50 -51 c72 -73 124 -90 279 -90 125 0 293 23 420 56 96 26 353
24 481 -3 175 -38 316 -55 450 -55 113 -1 137 2 183 22 32 14 64 37 82 60 30
38 30 39 30 169 0 127 1 133 25 156 13 14 30 25 37 25 46 0 186 23 219 37 49
19 66 50 85 156 13 79 19 197 9 197 -3 0 -26 -13 -52 -29 -57 -35 -215 -87
-293 -96 -59 -8 -98 -24 -119 -49 -9 -11 -12 -55 -12 -154 1 -119 -1 -141 -15
-153 -28 -23 -295 -19 -356 4 l-48 19 0 129 0 129 108 0 108 0 47 48 47 48
-52 67 -52 68 102 102 102 102 0 101 c0 87 4 111 31 185 25 68 40 94 85 139
l54 56 0 159 0 159 -64 66 c-51 51 -72 82 -100 148 -31 73 -36 94 -36 166 l0
81 -119 119 -119 119 -84 -2 c-72 -2 -99 3 -179 30 -77 26 -108 44 -172 95
l-79 64 -135 0 -135 0 -69 -67z m367 15 c58 -44 94 -82 94 -97 -1 -19 -44
-168 -51 -176 -3 -2 -26 17 -52 43 l-47 48 6 102 c4 56 10 102 14 102 3 0 20
-10 36 -22z m-283 -85 l16 -97 -32 -43 c-18 -23 -36 -41 -40 -40 -5 1 -24 40
-44 86 l-34 84 53 54 c29 29 55 53 58 53 3 0 13 -44 23 -97z m724 -81 c10 -6
-1 -29 -40 -87 -51 -78 -53 -79 -110 -92 -33 -7 -63 -11 -68 -8 -5 3 2 23 15
43 13 21 35 61 49 89 23 44 32 52 59 56 59 7 83 7 95 -1z m-1085 -24 c9 -7 35
-48 58 -90 l42 -78 -74 0 -74 0 -35 48 c-49 65 -79 109 -79 116 0 3 26 7 58 9
31 2 64 4 73 5 8 1 22 -4 31 -10z m627 -80 c49 -46 88 -72 144 -96 l77 -32 67
15 67 16 71 -71 71 -70 -4 -66 c-4 -58 0 -78 29 -151 31 -77 40 -89 95 -133
58 -46 61 -51 67 -101 14 -110 12 -116 -49 -172 -42 -38 -65 -70 -90 -125 -36
-79 -40 -109 -24 -192 l10 -52 -52 -72 c-28 -39 -56 -74 -62 -78 -16 -11 -326
-10 -326 1 0 5 13 12 29 16 56 12 187 103 258 179 78 83 121 158 153 264 20
64 22 89 18 205 -5 119 -8 139 -36 205 -48 116 -91 179 -174 256 -212 197
-510 242 -775 116 -248 -119 -395 -368 -380 -641 11 -189 95 -352 243 -473 55
-45 184 -116 211 -116 6 0 15 -4 18 -10 4 -6 -46 -10 -143 -10 l-149 0 -51 49
c-51 49 -52 51 -52 108 0 45 -9 78 -43 156 -37 88 -49 104 -102 149 l-60 51
-5 86 -5 86 56 60 c39 40 70 88 97 146 l40 86 -14 59 c-7 32 -14 67 -14 77 0
10 28 48 62 83 l61 64 78 0 c69 0 91 5 180 42 87 36 106 48 136 87 34 45 36
46 101 52 37 3 75 6 86 7 11 1 47 -24 85 -60z m-3 -114 c44 -9 117 -34 164
-56 114 -54 236 -175 293 -291 91 -185 88 -386 -8 -577 -95 -190 -350 -340
-575 -340 -89 0 -211 30 -300 73 -67 33 -102 60 -170 127 -88 88 -119 138
-160 259 -33 98 -31 260 4 365 36 105 77 175 150 250 162 167 379 236 602 190z
m710 -10 c-3 -9 -6 -40 -6 -69 l0 -53 -77 -51 c-43 -28 -84 -51 -91 -51 -17 0
-5 109 15 130 26 28 138 109 152 109 8 1 11 -5 7 -15z m-1659 -42 c95 -60 123
-86 129 -121 3 -20 10 -51 15 -70 4 -19 7 -37 4 -39 -2 -2 -43 18 -92 46 l-88
49 -3 77 c-2 42 -1 76 2 76 3 0 18 -8 33 -18z m1808 -350 c32 -29 54 -57 49
-61 -5 -4 -43 -13 -85 -19 -41 -6 -82 -14 -90 -17 -8 -3 -38 11 -66 32 -50 36
-67 63 -40 63 6 0 46 13 87 29 41 16 78 28 81 27 4 0 32 -25 64 -54z m-1816
-36 c36 -6 66 -16 68 -21 2 -6 -21 -34 -50 -63 l-53 -53 -65 16 c-35 8 -76 15
-91 15 -16 0 -28 4 -28 9 0 5 21 35 48 65 43 51 50 56 77 50 17 -3 59 -11 94
-18z m1787 -293 c49 -10 84 -23 84 -29 0 -19 -93 -94 -110 -90 -8 2 -50 12
-92 21 -45 9 -78 21 -78 28 1 13 89 86 104 87 4 0 46 -8 92 -17z m-1747 -95
c28 -23 51 -45 51 -49 0 -8 -60 -37 -137 -68 -29 -12 -36 -11 -65 7 -31 19
-107 92 -97 92 2 0 40 13 84 29 44 16 87 30 96 30 9 1 39 -18 68 -41z m1566
-192 l95 -45 0 -80 0 -81 -89 45 -89 45 -7 67 c-4 36 -9 72 -12 80 -7 19 -2
17 102 -31z m-1415 -115 c0 -53 -2 -59 -32 -81 -57 -43 -127 -90 -133 -90 -3
0 -5 34 -3 76 l3 76 75 43 c41 24 78 41 83 38 4 -2 7 -30 7 -62z m1318 -174
c29 -31 52 -63 52 -70 0 -21 -49 -62 -60 -51 -5 5 -29 36 -54 69 -44 59 -44
60 -28 88 9 15 21 26 27 25 6 -2 35 -29 63 -61z m-1223 -37 c-13 -21 -39 -59
-57 -85 l-33 -46 -23 26 -22 26 31 44 c17 24 45 58 62 75 28 28 31 29 48 14
17 -15 17 -18 -6 -54z m255 28 c0 -20 -62 -232 -72 -244 -7 -10 -106 -8 -117
2 -3 3 5 28 17 57 12 28 31 79 42 111 11 32 25 65 31 72 15 18 99 19 99 2z
m210 -31 c0 -24 -3 -78 -6 -120 l-7 -76 -50 -11 c-27 -6 -52 -8 -55 -5 -5 5
36 233 45 248 2 4 20 7 39 7 34 0 34 -1 34 -43z m303 -69 c22 -146 22 -162 0
-153 -10 3 -39 11 -64 17 l-47 11 -16 106 c-9 58 -16 112 -16 119 0 8 19 12
63 12 l64 0 16 -112z m258 -8 c26 -63 48 -120 48 -127 1 -17 -109 -29 -119
-13 -4 7 -18 59 -29 115 -12 55 -25 111 -28 124 -5 21 -3 22 38 19 l43 -3 47
-115z m877 -182 c-19 -147 -44 -201 -96 -212 -15 -3 -67 -10 -117 -16 -49 -5
-99 -12 -110 -15 -16 -4 -27 5 -53 43 -18 27 -35 64 -38 84 -5 29 -2 38 20 55
15 12 50 24 83 28 63 8 187 44 255 75 64 29 66 28 56 -42z m-2522 27 c18 -14
37 -25 43 -25 6 0 11 -4 11 -9 0 -6 51 -35 114 -66 63 -31 117 -63 120 -71 3
-8 -15 -37 -44 -69 -28 -30 -50 -60 -50 -65 0 -7 -8 -7 -22 1 -12 6 -58 24
-102 39 -121 40 -139 76 -120 238 4 28 9 52 12 52 3 0 20 -11 38 -25z m1355
-31 c45 -13 79 -15 199 -9 226 11 340 11 341 0 1 -5 -9 -17 -22 -25 -21 -13
-109 -14 -686 -10 -506 4 -665 8 -674 17 -7 7 -10 15 -7 18 3 3 63 5 134 4
191 -2 324 2 369 11 76 15 287 11 346 -6z m255 -87 c7 -7 7 -214 0 -225 -4 -7
-18 -7 -39 -1 -68 19 -303 49 -381 49 -105 0 -342 -33 -398 -55 -17 -7 -18 3
-18 120 l0 128 416 -6 c229 -3 418 -7 420 -10z m-1321 -255 c-11 -12 -60 14
-63 33 -1 11 12 38 30 60 l33 39 3 -63 c2 -35 0 -66 -3 -69z m1847 94 c15 -30
15 -36 2 -55 -21 -30 -29 -20 -32 38 -2 59 8 65 30 17z m-711 -76 c76 -12 176
-32 221 -46 142 -44 372 -44 459 0 16 8 31 11 34 7 2 -5 6 -51 7 -104 3 -84 0
-99 -18 -124 -34 -46 -102 -74 -191 -80 -89 -6 -284 10 -383 32 -65 14 -150
28 -270 46 -84 13 -254 3 -355 -21 -158 -37 -222 -45 -390 -45 l-170 0 -45 31
c-85 60 -92 72 -98 173 l-5 90 44 -16 c24 -8 79 -17 123 -20 90 -7 292 12 351
33 36 12 214 47 290 57 88 11 269 5 396 -13z"/>
<path d="M1390 2330 c0 -5 6 -13 14 -17 8 -4 16 -24 18 -43 4 -47 33 -49 34
-1 0 20 7 37 17 43 10 5 15 13 12 19 -8 12 -95 12 -95 -1z"/>
<path d="M1516 2332 c-2 -4 -7 -28 -11 -53 l-7 -46 37 -7 c20 -4 39 -5 42 -2
9 9 -8 26 -28 26 -10 0 -19 5 -19 11 0 6 9 9 20 6 11 -3 23 -1 26 5 3 5 -3 12
-15 15 -30 8 -26 26 4 21 35 -7 42 10 8 18 -15 3 -33 7 -40 9 -7 2 -14 1 -17
-3z"/>
<path d="M1337 2289 c5 -36 4 -41 -13 -37 -12 2 -21 14 -24 33 -7 41 -36 41
-32 1 5 -47 20 -66 52 -66 30 0 60 22 60 45 0 27 -20 65 -34 65 -11 0 -13 -10
-9 -41z"/>
<path d="M1182 2284 c-34 -15 -35 -34 -2 -34 12 0 21 -10 25 -30 6 -28 23 -39
38 -24 3 4 -1 20 -9 36 -11 22 -13 33 -5 41 28 28 5 34 -47 11z"/>
<path d="M1664 2282 c-6 -4 -16 -17 -23 -30 -18 -33 9 -72 48 -72 51 0 72 50
36 86 -25 25 -42 29 -61 16z m51 -32 c8 -12 -16 -50 -33 -50 -19 0 -26 28 -12
45 14 17 36 20 45 5z"/>
<path d="M1110 2235 c0 -17 41 -85 52 -85 19 0 16 23 -7 60 -26 41 -45 52 -45
25z"/>
<path d="M1756 2197 c-26 -34 -33 -57 -18 -57 4 0 13 5 20 12 9 9 15 9 24 0
16 -16 28 -15 28 3 0 8 -4 15 -10 15 -5 0 -10 5 -10 11 0 7 12 8 33 4 l32 -6
-28 25 c-15 15 -32 26 -37 26 -5 0 -20 -15 -34 -33z"/>
<path d="M1043 2191 c-38 -32 -42 -46 -12 -38 16 4 28 -1 41 -19 20 -25 48
-32 48 -12 0 6 -10 22 -21 35 -17 17 -19 26 -11 36 11 13 7 28 -7 27 -3 -1
-21 -13 -38 -29z"/>
<path d="M1345 2180 c-157 -32 -294 -155 -345 -310 -31 -91 -25 -217 14 -312
97 -236 396 -340 640 -223 142 68 226 190 251 365 8 58 -18 178 -54 244 -95
179 -305 277 -506 236z m39 -91 c-18 -33 -34 -63 -34 -65 0 -2 -11 -22 -25
-44 -14 -22 -38 -64 -54 -92 -52 -97 -173 -313 -188 -337 l-16 -24 -18 34
c-47 91 -45 259 5 357 65 126 212 230 328 232 l37 0 -35 -61z m254 19 c85 -42
168 -134 202 -219 33 -85 36 -229 5 -301 -11 -27 -23 -48 -27 -48 -3 0 -45 71
-94 158 -48 86 -110 198 -139 247 -28 50 -66 117 -84 149 l-33 59 54 -6 c29
-4 82 -21 116 -39z m-110 -130 c44 -79 118 -211 165 -295 46 -84 82 -154 79
-157 -3 -3 -75 -6 -161 -6 l-156 1 26 22 c40 34 62 84 56 129 -5 41 -31 88
-47 88 -16 0 -12 -20 9 -46 22 -28 17 -60 -11 -75 -14 -7 -23 -7 -34 2 -12 10
-22 10 -50 0 -31 -11 -38 -11 -55 5 -25 23 -24 59 2 78 14 9 19 21 15 31 -10
26 -29 13 -55 -38 -30 -61 -23 -107 25 -155 19 -19 34 -36 34 -38 0 -8 -249
-4 -254 5 -3 5 3 20 14 34 11 14 20 28 20 32 0 4 52 100 116 214 64 113 130
230 146 259 16 28 31 52 33 52 2 0 39 -64 83 -142z m252 -496 c0 -24 -98 -103
-158 -128 -59 -25 -80 -28 -177 -29 -139 0 -210 24 -291 98 -30 27 -54 53 -54
58 0 5 145 9 340 9 187 0 340 -4 340 -8z"/>
<path d="M1440 2039 c0 -9 -13 -58 -30 -109 -16 -51 -30 -112 -30 -135 0 -47
17 -105 31 -105 5 0 19 19 31 43 20 37 23 56 23 169 0 88 -4 131 -12 140 -10
9 -13 9 -13 -3z"/>
<path d="M1882 2122 c2 -11 -10 -30 -27 -45 -27 -23 -28 -26 -12 -33 12 -4 26
1 42 16 20 18 27 21 39 11 28 -24 29 10 0 40 -32 33 -47 37 -42 11z"/>
<path d="M967 2112 c-35 -38 -7 -79 35 -53 25 16 39 4 15 -13 -20 -16 -22 -26
-4 -26 19 0 47 33 47 54 0 23 -28 32 -52 17 -25 -16 -39 -4 -15 13 9 7 17 16
17 20 0 13 -28 5 -43 -12z"/>
<path d="M1923 2026 c-23 -12 -42 -28 -43 -37 0 -21 36 -66 46 -57 4 4 1 14
-6 23 -15 19 -5 34 12 17 18 -18 30 -14 23 8 -9 27 9 25 28 -2 23 -33 23 2 0
40 l-18 29 -42 -21z"/>
<path d="M910 2026 c0 -8 7 -16 15 -20 24 -9 17 -24 -12 -28 -14 -2 -28 -8
-30 -15 -4 -11 64 -53 87 -53 16 0 12 27 -5 34 -24 9 -17 24 13 28 39 4 34 24
-13 48 -46 24 -55 25 -55 6z"/>
<path d="M1953 1928 c-41 -20 -42 -81 -2 -93 27 -9 33 -1 14 18 -20 20 -19 34
3 46 27 15 44 -1 36 -34 -5 -21 -4 -27 7 -23 8 2 15 18 17 35 2 23 -3 35 -20
47 -26 18 -25 18 -55 4z"/>
<path d="M860 1906 c0 -14 85 -48 95 -38 15 15 0 31 -39 41 -56 14 -56 14 -56
-3z"/>
<path d="M927 1824 c-4 -4 -7 -16 -7 -26 0 -16 -6 -19 -33 -17 -18 2 -38 0
-45 -5 -22 -14 -2 -26 44 -26 24 0 44 -4 44 -8 0 -5 -20 -19 -46 -31 -59 -30
-56 -53 9 -65 56 -10 57 -27 4 -39 -23 -6 -37 -15 -37 -24 0 -11 7 -14 25 -9
29 7 31 4 9 -30 -11 -15 -13 -29 -8 -34 12 -12 84 10 91 27 8 21 -3 26 -26 13
-25 -13 -28 2 -5 21 11 9 14 22 9 48 -4 20 -10 41 -15 46 -4 6 -5 42 0 80 7
66 2 94 -13 79z m-17 -144 c0 -5 -4 -10 -10 -10 -5 0 -10 5 -10 10 0 6 5 10
10 10 6 0 10 -4 10 -10z"/>
<path d="M1977 1813 c-41 -5 -47 -26 -9 -31 28 -4 29 -32 2 -39 -11 -3 -20
-12 -20 -19 0 -10 14 -14 50 -14 39 0 50 3 50 16 0 9 -9 18 -20 21 -26 7 -26
29 1 36 23 6 21 31 -2 33 -8 0 -31 -1 -52 -3z"/>
<path d="M1940 1680 c0 -6 10 -14 23 -19 22 -9 22 -9 -5 -21 -32 -15 -37 -36
-10 -44 59 -16 82 -17 82 -3 0 8 -10 17 -22 21 -22 6 -22 7 10 26 35 22 40 35
16 44 -26 10 -94 7 -94 -4z"/>
<path d="M1905 1550 c-24 -27 -13 -64 25 -80 26 -11 33 -10 50 5 26 23 26 71
1 85 -30 15 -56 12 -76 -10z m59 -16 c20 -8 21 -33 1 -40 -18 -7 -45 12 -45
32 0 15 18 18 44 8z"/>
<path d="M935 1480 c-41 -45 18 -110 70 -76 27 18 34 63 13 84 -18 18 -63 14
-83 -8z m60 -45 c-26 -19 -34 -19 -42 1 -4 11 1 22 12 31 16 11 21 11 34 -2
13 -13 13 -16 -4 -30z"/>
<path d="M1851 1456 c-34 -36 -26 -63 9 -31 15 14 20 13 44 -6 16 -13 33 -18
44 -14 15 6 13 10 -13 31 -52 43 -60 45 -84 20z"/>
<path d="M1020 1390 c-24 -19 -32 -32 -25 -39 12 -13 75 33 75 55 0 20 -11 17
-50 -16z"/>
<path d="M1780 1375 c-21 -22 -22 -27 -10 -50 25 -46 90 -42 106 7 5 16 0 27
-20 45 -34 29 -47 29 -76 -2z m55 -18 c19 -15 13 -37 -9 -37 -18 0 -39 27 -31
40 8 13 17 13 40 -3z"/>
<path d="M1085 1350 c-10 -11 -29 -20 -42 -20 -32 0 -29 -10 11 -42 43 -34 50
-35 42 -4 -4 15 1 32 14 48 29 38 7 54 -25 18z"/>
<path d="M1146 1332 c-3 -5 -8 -28 -12 -51 -10 -59 8 -68 58 -28 21 16 41 28
44 25 3 -3 -2 -22 -10 -42 -16 -39 -3 -62 19 -33 16 22 25 21 25 -2 0 -10 7
-24 15 -31 13 -11 18 -5 36 34 19 44 19 66 -1 66 -5 0 -12 -9 -15 -20 -8 -26
-25 -26 -25 -1 0 24 -36 51 -67 51 -13 0 -28 9 -35 20 -14 21 -24 25 -32 12z
m34 -51 c0 -6 -4 -13 -10 -16 -5 -3 -10 1 -10 9 0 9 5 16 10 16 6 0 10 -4 10
-9z"/>
<path d="M1678 1312 c-16 -9 -28 -22 -28 -28 0 -18 26 -35 44 -28 18 7 22 24
6 24 -5 0 -10 5 -10 10 0 19 39 10 45 -10 8 -26 -1 -40 -26 -40 -10 0 -19 -4
-19 -10 0 -21 58 -10 73 14 14 21 14 26 -4 55 -21 35 -41 38 -81 13z"/>
<path d="M1588 1274 c0 -5 -2 -20 -3 -34 -1 -14 -5 -37 -10 -52 -5 -19 -3 -28
5 -28 6 0 14 9 17 20 6 23 23 26 41 8 8 -8 15 -8 21 -2 6 5 -6 26 -30 53 -21
24 -40 40 -41 35z"/>
<path d="M1424 1229 c-19 -22 -13 -43 19 -63 12 -8 21 -5 36 8 26 24 26 31 1
56 -25 25 -32 25 -56 -1z"/>
<path d="M1414 630 c-26 -10 -35 -51 -20 -82 8 -17 20 -23 44 -23 28 -1 32 2
32 27 0 18 -5 28 -15 28 -8 0 -15 -9 -15 -20 0 -13 -5 -18 -15 -14 -17 7 -20
50 -5 59 6 4 17 2 24 -4 13 -11 26 -5 26 10 0 15 -35 27 -56 19z"/>
<path d="M1090 575 c0 -52 2 -55 24 -55 31 0 56 25 56 55 0 43 -10 55 -46 55
l-34 0 0 -55z m55 15 c7 -21 0 -40 -16 -40 -5 0 -9 14 -9 30 0 34 15 40 25 10z"/>
<path d="M1190 587 c0 -24 5 -48 12 -55 18 -18 46 -14 58 7 13 25 13 91 0 91
-5 0 -10 -15 -10 -34 0 -39 -24 -67 -34 -40 -3 8 -6 29 -6 45 0 16 -4 29 -10
29 -5 0 -10 -19 -10 -43z"/>
<path d="M1290 576 c0 -56 16 -77 27 -36 3 11 9 20 13 20 5 0 12 -9 15 -20 12
-37 23 -20 22 33 l-2 52 -38 3 -37 3 0 -55z m50 24 c0 -5 -4 -10 -10 -10 -5 0
-10 5 -10 10 0 6 5 10 10 10 6 0 10 -4 10 -10z"/>
<path d="M1502 579 c-13 -57 -10 -68 13 -49 12 10 18 10 30 0 23 -19 27 -8 14
49 -8 38 -15 51 -28 51 -13 0 -21 -14 -29 -51z m38 -9 c0 -5 -4 -10 -10 -10
-5 0 -10 5 -10 10 0 6 5 10 10 10 6 0 10 -4 10 -10z"/>
<path d="M1590 576 c0 -55 16 -77 27 -37 3 11 14 21 25 24 15 4 19 12 16 34
-2 23 -8 28 -35 31 l-33 3 0 -55z m50 19 c0 -8 -4 -15 -9 -15 -13 0 -22 16
-14 24 11 11 23 6 23 -9z"/>
<path d="M1682 584 c3 -54 26 -77 56 -58 19 12 31 104 13 104 -6 0 -11 -13
-11 -29 0 -16 -3 -37 -6 -45 -10 -27 -34 1 -34 40 0 19 -5 34 -11 34 -6 0 -9
-19 -7 -46z"/>
<path d="M1789 628 c-7 -29 -1 -102 9 -105 7 -3 12 4 12 16 0 27 20 27 27 1
10 -38 22 -20 22 35 l0 55 -35 0 c-19 0 -34 -1 -35 -2z m46 -28 c3 -5 -1 -10
-9 -10 -9 0 -16 5 -16 10 0 6 4 10 9 10 6 0 13 -4 16 -10z"/>
<path d="M1335 369 c-88 -10 -135 -19 -135 -25 0 -2 4 -12 9 -22 5 -9 12 -25
15 -34 3 -10 15 -18 27 -18 18 0 20 -4 15 -26 -5 -17 -3 -23 4 -19 5 3 10 -1
10 -11 0 -13 -6 -15 -30 -10 -36 7 -41 -11 -5 -20 35 -9 69 21 54 48 -5 10 -9
40 -7 66 3 43 5 47 31 50 19 2 27 -1 27 -13 0 -9 -6 -15 -13 -13 -19 4 -16
-14 6 -44 23 -31 37 -36 37 -13 0 8 -4 15 -10 15 -5 0 -10 7 -10 15 0 18 12
19 28 3 9 -9 12 -8 12 5 0 9 5 17 11 17 7 0 9 -10 7 -25 -7 -34 10 -43 18 -10
7 29 -10 55 -34 52 -10 -1 -18 3 -19 8 -2 6 14 10 34 10 34 0 38 -3 43 -30 4
-21 11 -31 28 -33 12 -2 22 -10 22 -18 0 -8 5 -14 10 -14 6 0 10 23 10 51 0
49 1 50 27 47 28 -3 45 -28 19 -28 -9 0 -16 -4 -16 -9 0 -14 41 -61 53 -61 8
0 7 4 -1 12 -16 16 -15 38 1 38 8 0 22 -9 32 -20 15 -17 69 -50 82 -50 1 0 3
26 3 59 l0 58 -100 12 c-112 12 -190 12 -295 0z m169 -31 c-8 -27 -12 -33 -19
-27 -7 8 7 49 17 49 5 0 6 -10 2 -22z m151 2 c3 -5 3 -15 0 -20 -7 -12 -45 5
-45 20 0 13 37 13 45 0z m-387 -28 c2 -15 -2 -22 -12 -22 -11 0 -16 9 -16 26
0 31 23 28 28 -4z m432 -2 c0 -18 -5 -30 -13 -30 -22 0 -25 9 -13 35 15 34 26
31 26 -5z"/>
<path d="M876 332 c-3 -5 1 -16 10 -23 14 -12 13 -14 -12 -21 -16 -5 -75 -11
-131 -15 -56 -3 -100 -10 -97 -14 3 -5 20 -9 39 -9 37 0 56 -16 31 -26 -23 -9
-20 -21 6 -28 19 -4 20 -8 10 -18 -11 -11 -19 -7 -43 22 -34 40 -41 18 -8 -24
38 -48 83 -26 73 36 -5 31 -3 36 17 41 39 11 45 8 23 -11 -20 -16 -20 -20 -8
-49 15 -35 40 -43 63 -20 11 10 14 10 18 0 12 -32 24 -9 22 39 -2 33 1 53 9
56 8 2 12 -12 12 -48 0 -37 4 -50 13 -47 7 2 12 23 12 53 0 43 3 49 23 52 23
3 30 -12 12 -23 -8 -5 -7 -11 1 -21 16 -20 29 -8 29 27 0 48 19 33 22 -18 4
-69 23 -54 23 18 0 55 -2 60 -20 55 -69 -19 -96 -19 -119 3 -13 13 -27 18 -30
13z m-18 -103 c-3 -33 -31 -60 -45 -45 -4 5 -2 11 5 13 18 7 15 21 -5 26 -15
4 -15 6 5 12 12 4 22 11 22 16 0 5 5 9 11 9 6 0 9 -14 7 -31z"/>
<path d="M1835 330 c3 -5 12 -10 20 -10 8 0 26 -5 41 -10 19 -8 24 -14 17 -21
-7 -7 -17 -8 -30 -1 -21 12 -53 -1 -53 -21 1 -17 37 -63 45 -55 4 3 -1 17 -9
30 -15 23 -13 38 6 38 4 0 8 -7 8 -16 0 -11 6 -14 20 -9 17 5 20 2 20 -24 0
-17 5 -31 10 -31 6 0 10 20 10 44 0 24 3 51 6 59 4 11 -7 18 -46 26 -63 14
-73 14 -65 1z"/>
<path d="M1974 309 c-4 -7 -9 -29 -10 -50 -3 -30 1 -41 18 -53 30 -21 38 -20
38 4 0 14 -7 20 -21 20 -11 0 -19 5 -17 11 2 6 6 10 8 9 39 -8 49 -15 52 -36
5 -43 21 -31 22 16 1 46 18 71 24 35 9 -59 13 -66 35 -63 16 2 23 11 25 33 6
57 22 51 22 -8 0 -72 18 -75 22 -4 2 38 7 52 18 52 10 0 15 -10 15 -29 0 -30
18 -46 30 -27 11 20 25 11 25 -15 0 -16 5 -24 13 -22 7 3 13 27 15 59 l3 54
-113 1 c-62 0 -125 3 -141 7 -26 7 -27 6 -21 -19 5 -20 4 -25 -7 -22 -8 3 -13
11 -11 18 3 13 -16 40 -29 40 -4 0 -11 -5 -15 -11z m23 -26 c-4 -3 -10 -3 -14
0 -3 4 0 7 7 7 7 0 10 -3 7 -7z m133 -33 c0 -16 -4 -30 -10 -30 -5 0 -10 14
-10 30 0 17 5 30 10 30 6 0 10 -13 10 -30z m150 16 c0 -8 -4 -17 -9 -21 -12
-7 -24 12 -16 25 9 15 25 12 25 -4z"/>
<path d="M1080 300 c0 -5 5 -10 10 -10 6 0 10 5 10 10 0 6 -4 10 -10 10 -5 0
-10 -4 -10 -10z"/>
<path d="M1080 230 c0 -5 4 -10 9 -10 6 0 13 5 16 10 3 6 -1 10 -9 10 -9 0
-16 -4 -16 -10z"/>
<path d="M2280 160 c0 -12 28 -25 36 -17 3 3 -4 10 -15 17 -15 7 -21 7 -21 0z"/>
</g>
</svg>
