<?xml version="1.0" standalone="no"?>
<!DOCTYPE svg PUBLIC "-//W3C//DTD SVG 20010904//EN"
 "http://www.w3.org/TR/2001/REC-SVG-20010904/DTD/svg10.dtd">
<svg version="1.0" xmlns="http://www.w3.org/2000/svg"
 width="300.000000pt" height="337.000000pt" viewBox="0 0 300.000000 337.000000"
 preserveAspectRatio="xMidYMid meet">
<metadata>
Created by potrace 1.10, written by Peter Selinger 2001-2011
</metadata>
<g transform="translate(0.000000,337.000000) scale(0.100000,-0.100000)"
fill="#000000" stroke="none">
<path d="M1503 3192 c-51 -25 -54 -25 -117 -13 -82 16 -119 8 -165 -38 -72
-72 -74 -162 -4 -291 36 -67 37 -70 20 -87 -15 -15 -42 -19 -155 -24 -75 -3
-151 -11 -169 -18 -62 -24 -74 -104 -18 -129 42 -19 97 30 66 61 -7 7 -13 2
-21 -17 -14 -38 -45 -32 -45 9 0 47 47 65 160 64 l90 -1 -59 -9 c-64 -9 -86
-22 -86 -49 0 -21 23 -32 46 -23 15 6 15 7 -1 19 -22 16 -17 19 75 33 36 6 79
14 95 17 l30 6 -25 -25 c-21 -22 -232 -119 -310 -142 -44 -13 -284 -133 -305
-152 -11 -10 -43 -35 -71 -55 -100 -73 -224 -232 -283 -365 -75 -169 -105
-313 -105 -498 0 -300 94 -557 299 -825 53 -69 142 -150 280 -255 94 -72 289
-159 425 -190 41 -10 91 -21 110 -27 62 -16 261 -21 370 -9 225 26 403 91 595
219 125 83 295 230 295 255 0 6 17 33 39 62 92 121 179 308 211 452 27 119 33
360 12 458 -52 238 -166 458 -317 611 -114 115 -228 199 -375 273 -173 88
-423 162 -452 133 -18 -18 -2 -28 87 -52 162 -44 401 -179 529 -299 51 -48
143 -169 194 -256 52 -89 105 -220 106 -265 l1 -35 -65 -1 c-230 -4 -535 -16
-540 -21 -3 -3 134 -2 304 2 274 6 308 5 298 -8 -7 -8 -24 -18 -37 -21 -14 -4
-25 -12 -25 -19 0 -9 -22 -13 -77 -14 -50 -1 -79 -6 -84 -15 -7 -11 -9 -11 -9
0 0 7 -8 12 -17 10 -10 -1 -24 1 -30 5 -9 6 -13 0 -14 -20 l-1 -28 -7 25 c-7
25 -7 25 -13 3 -3 -13 -12 -23 -20 -22 -9 0 -9 2 -1 5 9 4 9 11 1 30 -13 27
-26 31 -34 9 -5 -11 -11 -9 -32 10 -14 13 -29 22 -34 19 -14 -9 -9 -22 11 -29
12 -4 18 -12 14 -21 -4 -11 -9 -12 -19 -3 -8 6 -14 7 -14 2 0 -5 -8 -10 -17
-10 -29 -3 -78 -11 -83 -13 -3 -1 -9 -1 -15 0 -40 9 -105 7 -106 -3 0 -7 -4
-2 -9 9 -7 18 -19 23 -62 26 -35 3 -58 0 -69 -9 -23 -19 -45 -18 -29 2 10 13
9 15 -9 15 -12 0 -31 -5 -43 -11 -16 -9 -23 -7 -35 10 -12 18 -21 20 -49 15
-20 -4 -40 -2 -48 5 -9 8 -21 8 -37 2 -24 -10 -24 -10 4 -10 17 -1 27 -6 27
-16 0 -10 10 -15 34 -15 19 0 44 -9 57 -20 l24 -20 -66 6 c-55 5 -67 4 -72
-10 -4 -9 -12 -16 -18 -16 -7 0 -5 9 5 25 16 24 15 25 -3 25 -11 0 -23 5 -26
10 -3 6 -22 10 -41 10 -74 0 -16 48 67 55 30 2 111 5 182 6 142 1 141 0 107
72 -38 81 -132 156 -216 172 -22 4 -86 7 -144 6 l-106 -1 -158 170 c-139 149
-186 190 -186 163 0 -4 72 -78 160 -164 88 -86 160 -159 160 -163 0 -3 -10 -6
-22 -6 -14 0 -84 46 -168 109 -80 60 -148 107 -152 104 -16 -9 -7 -29 20 -44
15 -9 77 -49 137 -88 61 -40 117 -77 125 -82 13 -8 12 -12 -8 -28 -25 -22 -2
-32 -326 141 -73 39 -136 66 -144 63 -27 -10 4 -29 212 -126 109 -51 204 -99
211 -106 11 -11 22 -8 64 18 48 30 55 32 119 26 38 -3 85 -13 105 -23 45 -22
72 -71 57 -108 -18 -47 -98 -111 -212 -170 -146 -75 -198 -124 -198 -186 0
-28 44 -70 73 -70 38 0 52 23 37 60 -10 25 -10 34 3 53 24 37 111 60 215 56
l87 -4 -2 25 c-1 14 1 19 3 12 3 -6 10 -9 15 -6 6 3 7 -4 4 -19 -6 -22 -1 -26
62 -47 37 -12 123 -51 190 -85 67 -35 145 -69 173 -76 27 -7 50 -18 50 -23 -1
-37 -186 -120 -324 -145 -76 -14 -167 -15 -146 -1 8 5 35 10 60 10 25 0 68 7
95 15 l50 15 -50 -6 c-27 -2 -66 -7 -85 -9 -21 -2 -44 2 -58 11 -23 15 -23 16
-5 28 10 8 40 16 66 20 26 4 74 17 105 28 31 11 75 22 97 25 l40 4 -30 -20
c-35 -23 -166 -61 -212 -61 -17 0 -34 -4 -38 -10 -15 -25 165 15 250 56 39 19
76 34 83 34 19 0 14 -17 -10 -34 -16 -12 -18 -16 -7 -16 21 0 53 36 44 49 -3
6 -19 11 -34 11 -15 0 -42 5 -59 11 -57 20 -207 46 -254 45 -38 -1 -47 2 -45
14 1 10 -7 16 -25 18 -14 2 -32 10 -38 18 -7 8 -22 14 -34 14 -12 0 -26 4 -32
10 -7 7 -23 3 -49 -10 -22 -11 -46 -20 -55 -20 -18 0 -40 -19 -40 -33 0 -5 7
-3 17 4 13 11 17 11 21 1 2 -8 15 -3 38 18 19 16 39 30 44 30 15 0 12 -23 -6
-48 -20 -29 -13 -28 20 3 15 14 31 25 37 25 21 0 7 -30 -28 -60 -27 -22 -31
-28 -13 -19 14 6 34 19 45 29 28 25 75 35 75 16 0 -19 -45 -50 -99 -68 -52
-18 -81 -13 -81 13 0 11 -5 19 -11 19 -5 0 -8 -4 -4 -9 8 -15 -32 -48 -67 -55
-36 -7 -49 -1 -42 19 8 20 -24 31 -48 16 -16 -10 -22 -8 -39 11 l-20 23 16
-32 c18 -38 22 -39 46 -17 10 9 23 13 29 9 9 -6 9 -9 0 -15 -20 -13 -1 -30 33
-30 l32 0 -25 -20 c-25 -19 -25 -20 -3 -20 14 0 21 -5 17 -13 -3 -8 -1 -25 5
-38 6 -17 5 -30 -4 -42 -16 -23 -55 -9 -78 27 -17 25 -16 27 4 47 12 12 18 20
13 17 -58 -28 -89 -38 -101 -34 -9 4 -31 -3 -50 -15 -24 -15 -42 -19 -61 -14
-105 25 -152 0 -152 -81 0 -36 -8 -59 -30 -95 -32 -49 -111 -128 -148 -148
-33 -18 -26 2 11 29 91 68 147 137 147 183 0 35 -9 38 -62 20 -40 -13 -48 -20
-54 -46 -6 -33 -30 -67 -46 -67 -5 0 0 12 11 27 33 40 16 40 -20 -1 -17 -20
-34 -34 -37 -31 -3 3 7 19 23 35 16 17 24 30 18 30 -6 0 -28 -19 -48 -43 -27
-30 -35 -36 -30 -20 5 19 3 22 -12 16 -10 -4 14 28 52 70 39 42 87 107 108
144 26 47 37 59 32 38 -8 -37 -43 -89 -117 -174 -31 -36 -54 -68 -51 -71 2 -3
27 20 54 50 26 30 49 48 49 40 0 -10 3 -11 8 -4 4 6 17 14 30 18 12 4 22 14
22 23 0 9 6 13 15 9 9 -3 15 0 15 9 0 18 16 20 24 3 7 -17 31 20 31 47 0 16 6
20 30 17 51 -4 61 10 40 53 -28 61 -30 106 -6 170 47 126 132 189 397 295 101
40 119 52 132 89 13 37 -1 58 -45 67 -27 5 -37 0 -76 -35 -41 -38 -77 -53 -77
-33 0 5 -11 14 -25 20 -14 6 -25 18 -25 26 0 9 -7 12 -17 10 -17 -5 -204 52
-311 95 -60 24 -86 27 -80 9 5 -13 41 -26 253 -87 112 -32 130 -40 133 -59 3
-19 -1 -22 -36 -22 -21 0 -81 9 -133 20 -52 12 -119 25 -149 30 -30 5 -90 16
-134 25 -55 12 -81 14 -89 6 -7 -7 -6 -12 4 -15 14 -6 290 -52 358 -61 20 -2
60 -9 90 -15 29 -5 55 -10 57 -10 2 0 4 -5 4 -11 0 -8 -54 -10 -190 -6 -162 4
-190 3 -190 -9 0 -12 28 -15 173 -14 94 0 178 1 185 0 21 0 13 -20 -12 -30
-24 -9 -676 -19 -676 -10 1 17 31 115 53 167 57 139 199 309 337 403 53 36 73
45 107 44 35 -1 42 2 45 20 3 24 39 43 176 92 73 27 92 31 92 19 0 -8 5 -15
11 -15 6 0 9 8 7 18 -4 13 8 23 51 41 264 114 349 171 431 293 77 112 100 239
59 328 -55 121 -168 162 -286 102z m175 -16 c34 -18 65 -51 86 -93 35 -69 10
-232 -45 -295 l-20 -23 16 34 c25 51 46 128 47 171 0 21 -11 63 -25 92 -39 87
-113 126 -175 94 -35 -18 -52 -20 -52 -6 0 33 118 52 168 26z m-314 -22 c30
-12 16 -19 -30 -15 -32 2 -42 6 -33 12 16 10 41 11 63 3z m100 -51 c-3 -27
-15 -70 -25 -98 -26 -69 -25 -85 6 -85 23 0 24 -2 15 -20 -13 -24 -87 -63
-106 -56 -26 10 -17 90 16 146 17 28 35 72 40 97 13 58 17 63 41 63 18 0 20
-4 13 -47z m86 -63 c0 -5 -2 -10 -4 -10 -3 0 -8 5 -11 10 -3 6 -1 10 4 10 6 0
11 -4 11 -10z m20 -40 c0 -5 -7 -10 -15 -10 -8 0 -15 5 -15 10 0 6 7 10 15 10
8 0 15 -4 15 -10z m7 -55 c3 -9 3 -18 0 -21 -7 -8 -47 15 -47 26 0 16 40 11
47 -5z m-17 -45 c21 -11 17 -40 -5 -40 -17 0 -38 27 -30 40 8 13 12 13 35 0z
m-20 -65 c12 -15 7 -45 -8 -45 -20 0 -45 28 -39 44 8 20 31 21 47 1z m-215
-55 c-10 -11 -25 -20 -33 -20 -9 0 -6 7 9 20 31 25 47 26 24 0z m185 -19 c-1
-17 -18 -31 -33 -26 -21 9 -30 35 -16 52 10 11 15 11 30 -3 11 -10 19 -20 19
-23z m180 -22 c-7 -11 -14 -18 -17 -15 -3 3 0 12 7 21 18 21 23 19 10 -6z
m-243 -25 c14 -14 14 -17 1 -30 -13 -13 -17 -13 -38 4 -24 19 -21 42 6 42 9 0
23 -7 31 -16z m-60 -71 c-17 -17 -19 -17 -38 7 -20 23 -20 25 -3 37 16 11 21
10 38 -7 20 -19 20 -21 3 -37z m-64 -7 c16 -24 7 -46 -20 -46 -21 0 -36 39
-22 56 16 20 24 18 42 -10z m-66 -41 c10 -22 8 -27 -10 -36 -17 -9 -23 -8 -34
7 -16 22 -17 41 0 47 24 10 32 7 44 -18z m-76 -32 c10 -27 0 -42 -28 -43 -19
0 -29 50 -12 61 22 14 29 11 40 -18z m-76 -38 c0 -39 -31 -48 -41 -11 -7 30 2
48 24 44 11 -2 17 -13 17 -33z m-71 -11 c12 -31 6 -44 -18 -44 -25 0 -43 30
-31 50 10 16 42 12 49 -6z m-76 -38 c6 -13 8 -27 5 -30 -14 -13 -42 -5 -48 14
-13 42 24 56 43 16z m-78 -25 c15 -29 12 -41 -9 -41 -20 0 -37 32 -26 50 10
16 23 12 35 -9z m1197 12 c-4 -3 -10 -3 -14 0 -3 4 0 7 7 7 7 0 10 -3 7 -7z
m-1267 -42 c5 -11 10 -24 10 -29 0 -16 -31 -23 -46 -11 -17 14 -18 46 -1 52
21 9 26 7 37 -12z m1325 9 c3 -5 2 -10 -4 -10 -5 0 -13 5 -16 10 -3 6 -2 10 4
10 5 0 13 -4 16 -10z m-1396 -86 c-16 -20 -37 -17 -49 5 -8 15 -6 24 7 37 16
15 18 15 35 -6 14 -17 16 -26 7 -36z m1456 46 c3 -5 2 -10 -4 -10 -5 0 -13 5
-16 10 -3 6 -2 10 4 10 5 0 13 -4 16 -10z m59 -36 c9 -3 14 -10 11 -15 -7 -10
-35 0 -35 12 0 11 3 11 24 3z m-1588 -30 c4 -17 2 -29 -7 -35 -21 -13 -27 -11
-39 12 -9 15 -8 24 1 35 18 22 38 17 45 -12z m1660 -32 c-9 -9 -37 8 -31 18 5
8 11 7 21 -1 8 -6 12 -14 10 -17z m-1728 -13 c11 -18 11 -23 -4 -34 -10 -7
-24 -11 -30 -8 -17 6 -24 39 -11 52 16 16 31 13 45 -10z m1790 -36 c5 -18 -23
-16 -39 3 -11 14 -10 15 11 12 13 -1 25 -9 28 -15z m-1856 -50 c-39 -29 -68 2
-36 38 l18 20 17 -23 c16 -21 16 -23 1 -35z m1908 2 c7 -9 10 -19 6 -22 -8 -9
-38 9 -44 25 -5 17 23 15 38 -3z m-1960 -50 c0 -13 -20 -35 -32 -35 -4 0 -12
9 -18 21 -9 17 -8 25 6 40 17 19 19 19 31 3 7 -10 13 -23 13 -29z m2018 -17
c18 -18 15 -28 -8 -28 -11 0 -20 2 -20 4 0 2 -3 11 -6 20 -7 19 16 22 34 4z
m-2080 -30 c18 -18 14 -38 -7 -38 -10 0 -21 9 -24 19 -8 31 9 41 31 19z m2132
-43 c10 -12 9 -16 -5 -21 -17 -7 -38 13 -29 28 8 12 20 10 34 -7z m-2171 -19
c14 -17 4 -46 -15 -46 -18 0 -28 24 -20 45 7 19 20 19 35 1z m2209 -50 c3 -13
-1 -17 -14 -14 -11 2 -20 11 -22 22 -3 13 1 17 14 14 11 -2 20 -11 22 -22z
m-2234 -35 c3 -4 -4 -17 -15 -26 -18 -17 -21 -17 -35 -3 -13 12 -14 20 -5 37
10 17 16 19 31 11 10 -6 21 -14 24 -19z m2266 -32 c0 -24 -23 -21 -28 4 -2 10
3 17 12 17 10 0 16 -9 16 -21z m-2315 -49 c0 -16 -6 -26 -18 -28 -19 -4 -32
20 -23 44 9 25 41 13 41 -16z m2339 -6 c17 -17 13 -34 -8 -34 -14 0 -28 35
-18 44 8 8 9 8 26 -10z m-2362 -76 c-7 -27 -22 -33 -39 -15 -12 11 -13 19 -4
36 10 17 15 19 30 9 11 -7 16 -19 13 -30z m938 -13 c0 -17 -19 -31 -52 -39
-34 -8 -35 3 -4 37 25 27 56 28 56 2z m1458 -8 c2 -10 -3 -17 -12 -17 -10 0
-16 9 -16 21 0 24 23 21 28 -4z m-2418 -52 c0 -18 -5 -25 -20 -25 -15 0 -20 7
-20 25 0 18 5 25 20 25 15 0 20 -7 20 -25z m2438 -18 c2 -10 -3 -17 -12 -17
-18 0 -29 16 -21 31 9 14 29 6 33 -14z m-2448 -63 c0 -17 -6 -24 -20 -24 -22
0 -35 22 -27 44 9 24 47 7 47 -20z m871 22 c-18 -22 -84 -38 -125 -31 -22 5
-44 1 -66 -10 -20 -11 -43 -14 -63 -10 -24 5 -28 4 -17 -4 22 -16 62 -13 88 5
22 15 82 12 82 -4 0 -13 -69 -52 -83 -46 -7 2 -27 -2 -43 -11 -16 -8 -35 -15
-41 -15 -16 0 -17 -12 -1 -28 15 -15 4 -26 -17 -19 -8 4 -15 19 -16 34 0 26
-1 27 -11 7 -14 -29 -123 -73 -165 -67 -18 3 -33 10 -33 15 0 6 -6 8 -12 5 -7
-3 -22 -8 -33 -12 -19 -6 -19 -6 -2 8 16 13 13 14 -30 11 -27 -2 -41 -1 -33 3
14 6 41 36 36 40 -1 1 -22 -4 -46 -12 -25 -7 -39 -14 -32 -14 7 -1 10 -6 7
-12 -4 -6 2 -13 13 -16 33 -8 33 -30 0 -51 -31 -20 -79 -19 -59 1 15 15 14 27
-4 27 -12 0 -15 13 -15 60 0 59 1 60 28 61 15 0 36 4 47 9 20 9 20 9 0 10 -11
1 -14 4 -7 7 6 2 10 9 6 14 -7 12 -44 12 -44 -1 0 -5 -5 -10 -11 -10 -6 0 -9
12 -7 28 l3 27 110 5 c61 3 222 7 360 9 229 3 248 2 236 -13z m1597 -39 c2
-12 -3 -17 -17 -17 -15 0 -21 6 -21 21 0 25 33 22 38 -4z m-1358 -16 c-5 -11
-15 -23 -21 -27 -6 -3 -3 5 6 20 20 30 30 35 15 7z m1119 3 c19 -14 27 -14 46
-4 47 25 60 12 62 -65 2 -70 0 -74 -11 -22 -4 15 -13 27 -21 27 -8 0 -15 5
-15 10 0 22 -47 10 -58 -15 -13 -28 -43 -33 -62 -10 -22 27 -40 18 -33 -16 l6
-30 -39 7 c-21 3 -46 13 -56 21 -14 13 -22 9 -68 -36 -37 -34 -51 -54 -46 -66
7 -19 26 -11 26 11 0 17 12 18 27 3 9 -9 18 -8 37 5 35 22 40 21 58 -17 15
-31 15 -34 -3 -45 -10 -7 -30 -12 -45 -12 -14 0 -32 -7 -41 -15 -11 -12 -19
-13 -28 -5 -10 8 -19 8 -34 0 -22 -11 -28 -44 -10 -56 12 -7 4 -51 -13 -72 -8
-9 -14 -10 -22 -2 -19 19 -45 10 -72 -25 -14 -19 -32 -35 -39 -35 -7 0 -18 -7
-25 -15 -9 -10 -28 -15 -54 -14 -23 1 -54 -6 -71 -15 -16 -9 -38 -16 -48 -16
-10 0 -30 -9 -45 -20 -28 -21 -47 -21 -131 0 -30 7 -47 7 -56 0 -7 -5 -50 -12
-96 -15 -46 -3 -104 -7 -129 -10 -29 -3 -65 2 -100 14 -30 10 -58 17 -62 14
-4 -2 -16 -23 -26 -46 -22 -48 -64 -91 -83 -85 -8 3 -1 16 20 39 36 37 71 99
71 125 0 12 5 15 23 9 132 -41 219 -50 331 -36 55 8 131 15 167 16 36 2 82 10
103 19 20 8 42 13 50 10 7 -3 19 2 26 11 7 8 25 15 41 15 15 0 30 4 34 9 3 5
22 15 42 22 41 13 63 35 93 91 24 45 25 49 3 42 -17 -5 -17 -5 0 9 25 21 21
29 -13 22 -35 -8 -36 -7 -10 42 33 64 35 96 8 128 -22 25 -30 28 -93 28 -55 0
-72 -4 -85 -19 -20 -24 -105 -84 -119 -84 -21 0 -11 31 13 40 14 5 32 21 42
35 9 14 20 25 25 25 4 0 20 12 34 26 23 22 30 24 73 18 26 -3 53 -11 60 -17
18 -15 135 -12 172 3 23 9 34 10 42 2 20 -20 133 9 148 39 13 23 48 25 79 3z
m-1099 -23 c-6 -12 -15 -21 -21 -21 -5 0 -2 11 7 25 20 30 31 26 14 -4z m62
11 c3 -11 0 -19 -8 -19 -16 0 -16 0 -8 21 8 21 11 20 16 -2z m223 8 c-3 -5
-12 -10 -18 -10 -7 0 -6 4 3 10 19 12 23 12 15 0z m425 -15 c0 -8 -7 -15 -15
-15 -13 0 -14 3 -3 15 16 18 18 18 18 0z m-1643 -2 c-4 -3 -10 -3 -14 0 -3 4
0 7 7 7 7 0 10 -3 7 -7z m963 3 c0 -3 -5 -8 -12 -12 -7 -4 -8 -3 -4 4 7 12 16
16 16 8z m877 -3 c-4 -3 -10 -3 -14 0 -3 4 0 7 7 7 7 0 10 -3 7 -7z m-2047
-29 c0 -21 -4 -25 -22 -22 -15 2 -24 11 -26 26 -3 18 1 22 22 22 21 0 26 -5
26 -26z m1043 6 c-3 -11 -9 -20 -14 -20 -10 0 -12 24 -2 33 13 13 21 7 16 -13z
m562 8 c2 -2 1 -9 -3 -15 -5 -8 -29 -9 -86 -2 -116 13 -121 30 -7 25 51 -2 94
-6 96 -8z m885 -18 c0 -13 -7 -20 -20 -20 -13 0 -20 7 -20 20 0 13 7 20 20 20
13 0 20 -7 20 -20z m-1150 6 c0 -3 -5 -8 -12 -12 -7 -4 -8 -3 -4 4 7 12 16 16
16 8z m40 -4 c0 -10 -21 -32 -31 -32 -4 0 -5 9 -2 20 5 19 33 29 33 12z m17
-19 c-4 -3 -7 0 -7 7 0 7 3 10 7 7 3 -4 3 -10 0 -14z m51 -17 c-7 -12 -13 -16
-15 -9 -3 7 -11 9 -20 6 -13 -5 -13 -3 -4 15 7 13 17 18 31 15 17 -4 18 -8 8
-27z m-486 2 c-7 -7 -12 -8 -12 -2 0 14 12 26 19 19 2 -3 -1 -11 -7 -17z m17
-15 c-7 -10 -22 -28 -33 -40 -13 -16 -15 -23 -6 -23 9 0 8 -6 -5 -20 -10 -11
-23 -20 -28 -20 -6 0 -2 10 9 21 19 22 19 22 -6 14 -20 -6 -14 2 25 38 54 50
65 57 44 30z m-981 -25 c-2 -15 -10 -23 -23 -23 -13 0 -21 8 -23 23 -3 18 1
22 23 22 22 0 26 -4 23 -22z m2500 -1 c3 -14 -1 -18 -20 -15 -12 2 -24 11 -26
21 -3 14 1 18 20 15 12 -2 24 -11 26 -21z m-1918 -7 c0 -14 -7 -20 -22 -21
-13 0 -17 -3 -10 -6 6 -2 12 -11 12 -19 0 -14 30 -8 41 9 4 6 15 7 25 3 12 -5
15 -9 7 -14 -6 -4 -13 -18 -15 -32 -2 -14 -9 -24 -16 -22 -8 1 -40 5 -72 9
-57 6 -60 5 -70 -21 -9 -25 -12 -26 -66 -20 l-55 7 7 -39 c7 -38 6 -39 -13
-21 -27 23 -57 21 -87 -6 -19 -18 -23 -26 -14 -35 9 -9 9 -12 0 -12 -9 0 -10
-12 -6 -42 8 -51 12 -57 24 -38 7 11 10 6 10 -20 0 -31 2 -33 15 -19 9 8 19
35 24 60 l9 44 1 -40 2 -40 19 24 c25 29 27 8 5 -46 -20 -46 -19 -50 5 -28 43
39 76 154 50 170 -5 3 -10 -1 -10 -9 0 -8 -5 -18 -11 -21 -7 -5 -8 8 -3 41 8
59 7 58 37 50 22 -5 23 -9 19 -61 -3 -37 -1 -55 7 -55 7 0 9 -10 5 -27 -10
-42 4 -22 32 44 23 53 25 55 20 20 -7 -50 -63 -140 -127 -204 -29 -29 -56 -53
-61 -53 -8 0 -69 126 -90 190 -19 55 -36 133 -40 180 -3 32 -1 35 27 38 16 2
38 10 49 18 22 15 131 20 122 5 -3 -5 1 -14 9 -21 12 -10 25 -5 71 26 59 41
114 73 127 74 4 0 7 -9 7 -20z m-283 -6 c-3 -3 -12 -4 -19 -1 -8 3 -5 6 6 6
11 1 17 -2 13 -5z m1386 -34 c-3 -12 0 -20 7 -20 7 0 9 -8 5 -20 -9 -29 2 -25
20 8 15 26 16 26 10 2 -5 -22 -4 -23 7 -8 7 9 19 25 25 35 8 11 8 4 -1 -19 -8
-21 -11 -38 -6 -38 5 0 15 19 21 43 6 23 14 36 16 29 3 -7 0 -26 -6 -42 -13
-38 -6 -39 13 -2 13 23 15 24 16 7 1 -18 2 -17 15 5 14 25 14 25 15 3 0 -13
-9 -28 -20 -35 -11 -7 -20 -18 -20 -25 0 -22 -60 -15 -116 14 -35 18 -50 31
-47 40 5 12 7 12 14 2 6 -10 11 -6 18 14 12 31 22 36 14 7z m667 -13 c0 -57
-31 -219 -56 -297 -29 -85 -85 -203 -115 -240 l-20 -25 15 32 c21 42 21 67 0
28 -9 -16 -23 -43 -32 -60 -9 -16 -15 -34 -14 -39 4 -14 -75 -110 -126 -152
-89 -75 -138 -105 -222 -134 -46 -17 -84 -29 -86 -28 -1 2 47 26 107 53 59 28
109 53 109 57 0 4 -33 -7 -73 -26 -82 -37 -206 -80 -213 -74 -2 3 49 24 114
48 64 24 149 60 187 81 78 43 73 54 -6 13 -28 -14 -53 -24 -55 -21 -2 2 16 14
41 26 24 12 47 26 50 31 3 5 19 11 35 15 16 4 32 10 35 15 3 4 -5 6 -17 3 -22
-4 -22 -4 -3 8 32 19 75 61 106 103 29 39 38 63 19 51 -6 -3 -7 1 -3 10 4 12
8 13 13 4 11 -16 44 61 74 171 25 91 37 119 67 159 25 32 24 44 -3 30 -23 -11
-23 -11 1 15 35 37 20 43 -21 8 -46 -41 -73 -100 -97 -216 -12 -55 -34 -127
-50 -160 -32 -65 -76 -124 -86 -114 -4 3 7 21 23 40 75 84 111 247 96 425 -7
85 -6 113 4 122 7 7 12 8 12 1 0 -21 20 -9 21 13 0 21 1 21 8 2 4 -11 4 -35 0
-55 -12 -50 -10 -59 6 -30 17 29 19 22 5 -15 -14 -36 4 -23 20 15 7 16 19 30
26 30 8 0 14 5 14 10 0 6 7 10 15 10 9 0 20 10 25 23 8 20 9 20 10 2 1 -31 20
3 20 38 0 15 5 27 10 27 6 0 10 -15 10 -33z m-93 -4 c-4 -3 -7 0 -7 7 0 7 3
10 7 7 3 -4 3 -10 0 -14z m238 -8 c0 -28 -29 -25 -33 3 -3 19 0 23 15 20 10
-2 18 -12 18 -23z m-2495 -10 c0 -28 -3 -29 -31 -15 -28 15 -24 40 6 40 20 0
25 -5 25 -25z m2277 -22 c-4 -3 -7 0 -7 7 0 7 3 10 7 7 3 -4 3 -10 0 -14z
m-871 -27 c4 -11 16 -13 41 -9 23 4 34 2 30 -4 -5 -8 -29 -17 -106 -39 -8 -3
-11 -7 -8 -11 4 -3 37 4 75 17 38 12 80 20 93 18 24 -3 23 -4 -6 -20 -16 -8
-61 -23 -98 -32 -65 -16 -70 -16 -88 0 -28 26 -23 42 16 50 46 8 56 24 10 17
-21 -3 -35 -2 -35 5 0 23 68 30 76 8z m1089 -11 c0 -11 -8 -21 -17 -23 -14 -3
-18 3 -18 23 0 20 4 26 18 23 9 -2 17 -12 17 -23z m-2496 -7 c10 -27 1 -41
-21 -33 -17 7 -30 40 -20 49 12 13 33 5 41 -16z m501 -14 c0 -8 -4 -12 -10 -9
-5 3 -10 13 -10 21 0 8 5 12 10 9 6 -3 10 -13 10 -21z m814 17 c11 -18 -22
-41 -79 -56 l-60 -14 69 2 c87 3 99 -15 25 -37 -75 -23 -109 -21 -109 4 0 11
-4 20 -10 20 -5 0 -10 6 -10 14 0 8 23 21 55 31 30 10 63 24 72 31 21 15 40
18 47 5z m487 -49 c-6 -11 -18 -22 -26 -26 -12 -4 -11 1 5 25 24 32 38 33 21
1z m-1344 -29 c-3 -10 -5 -2 -5 17 0 19 2 27 5 18 2 -10 2 -26 0 -35z m70 15
c-3 -7 -5 -2 -5 12 0 14 2 19 5 13 2 -7 2 -19 0 -25z m593 13 c0 -5 -11 -16
-25 -25 -46 -30 -78 -13 -33 18 24 17 58 21 58 7z m1370 -17 c0 -16 -16 -19
-25 -4 -8 13 4 32 16 25 5 -4 9 -13 9 -21z m-2481 -16 c5 -14 5 -26 -2 -30
-18 -11 -37 3 -37 28 0 31 28 32 39 2z m526 -65 c-14 -27 -40 -64 -57 -83 -17
-19 -23 -24 -14 -10 49 76 77 128 84 155 6 26 7 27 10 8 2 -13 -8 -44 -23 -70z
m603 49 c2 -8 -8 -12 -30 -12 -31 1 -32 1 -13 15 21 17 37 15 43 -3z m687 8
c-3 -5 -15 -10 -26 -10 -11 0 -17 5 -14 10 3 6 15 10 26 10 11 0 17 -4 14 -10z
m-1528 -17 c-4 -3 -7 0 -7 7 0 7 3 10 7 7 3 -4 3 -10 0 -14z m1368 -29 c-49
-24 -119 -53 -155 -65 -121 -38 -330 -63 -330 -39 0 6 24 10 54 10 34 0 60 5
69 14 8 8 36 17 63 20 118 15 297 64 339 92 11 8 26 14 35 13 8 0 -25 -21 -75
-45z m585 32 c0 -3 -4 -8 -10 -11 -5 -3 -10 -1 -10 4 0 6 5 11 10 11 6 0 10
-2 10 -4z m-1969 -64 c-7 -12 -9 -5 -9 24 0 33 2 36 9 16 5 -14 5 -30 0 -40z
m2199 38 c0 -11 -4 -20 -9 -20 -14 0 -23 18 -16 30 10 17 25 11 25 -10z
m-1181 -7 c3 -2 0 -8 -5 -13 -15 -15 -144 -26 -144 -12 0 15 18 25 60 33 32 6
78 2 89 -8z m487 2 c-22 -16 -76 -20 -76 -6 0 13 19 19 60 20 33 0 34 -1 16
-14z m-646 -5 c0 -5 -17 -12 -37 -17 l-38 -7 29 -5 c36 -7 40 -25 7 -29 -26
-4 -41 12 -41 46 0 19 5 22 40 22 22 0 40 -4 40 -10z m-1114 -27 c3 -15 -1
-23 -11 -23 -16 0 -38 34 -28 44 13 13 36 1 39 -21z m1679 -3 c8 -13 -15 -13
-35 0 -12 8 -11 10 7 10 12 0 25 -4 28 -10z m391 -38 c-11 -10 -15 4 -8 28 l7
25 3 -23 c2 -13 1 -26 -2 -30z m31 -20 c-10 -99 -57 -238 -88 -258 -8 -4 -8
-1 -1 12 37 71 56 129 70 215 8 55 18 99 20 99 3 0 2 -31 -1 -68z m64 -41
c-11 -50 -25 -99 -31 -109 -13 -21 -11 -9 22 127 28 119 35 105 9 -18z m286
83 c1 -5 -2 -16 -7 -24 -12 -20 -33 0 -24 24 7 17 25 17 31 0z m-1197 -4 c20
-12 9 -21 -37 -27 -42 -5 -98 11 -88 27 8 13 105 13 125 0z m360 0 c0 -5 -7
-10 -15 -10 -8 0 -15 5 -15 10 0 6 7 10 15 10 8 0 15 -4 15 -10z m397 -67 c-6
-68 -31 -158 -48 -168 -4 -3 -2 16 6 41 8 26 19 81 26 121 6 40 14 73 17 73 3
0 2 -30 -1 -67z m-457 53 c0 -3 -4 -8 -10 -11 -5 -3 -10 -1 -10 4 0 6 5 11 10
11 6 0 10 -2 10 -4z m-1542 -34 c2 -12 -1 -22 -6 -22 -15 0 -34 28 -27 40 10
17 30 6 33 -18z m1101 14 c20 -13 11 -23 -16 -19 -56 8 -73 14 -73 21 0 10 73
8 89 -2z m866 -43 c-9 -64 -16 -95 -22 -90 -5 6 18 137 24 137 3 0 2 -21 -2
-47z m82 -13 c-7 -59 -67 -225 -74 -204 -2 6 8 34 22 61 14 28 30 85 37 127
14 91 23 101 15 16z m-117 -15 c-9 -74 -31 -154 -37 -137 -3 7 3 45 12 85 9
40 18 83 21 96 9 43 11 17 4 -44z m490 36 c0 -20 -17 -37 -27 -28 -7 8 7 47
18 47 5 0 9 -9 9 -19z m-1643 -28 c-4 -3 -7 0 -7 7 0 7 3 10 7 7 3 -4 3 -10 0
-14z m1232 -27 c-9 -8 -10 -7 -5 7 3 10 7 24 7 30 1 7 3 4 6 -7 3 -10 -1 -23
-8 -30z m-1986 14 c6 -22 -7 -35 -23 -25 -15 9 -12 45 4 45 7 0 16 -9 19 -20z
m844 3 c-4 -3 -7 0 -7 7 0 7 3 10 7 7 3 -4 3 -10 0 -14z m829 -49 c-9 -6 -16
-18 -16 -25 0 -8 -10 -33 -23 -57 -22 -41 -80 -83 -103 -75 -6 2 -17 -3 -24
-12 -7 -8 -16 -15 -20 -15 -5 0 16 26 46 58 30 31 76 88 102 126 44 65 47 67
50 40 2 -17 -2 -32 -12 -40z m189 -26 c-10 -40 -21 -77 -26 -82 -12 -14 -11
-2 5 57 8 29 17 65 21 81 3 15 9 26 12 23 3 -3 -2 -39 -12 -79z m-1296 15
c-35 -58 -66 -93 -126 -145 -50 -44 -56 -47 -71 -32 -15 15 -14 18 14 38 16
11 51 41 78 66 37 34 45 38 31 17 -10 -15 -41 -47 -69 -72 -28 -24 -46 -45
-40 -45 20 0 160 145 180 186 10 23 20 38 22 33 2 -5 -7 -26 -19 -46z m138 40
c-4 -3 -7 0 -7 7 0 7 3 10 7 7 3 -4 3 -10 0 -14z m880 0 c-4 -3 -7 0 -7 7 0 7
3 10 7 7 3 -4 3 -10 0 -14z m-102 -74 c-24 -71 -29 -55 -8 22 10 35 19 56 21
46 2 -9 -4 -40 -13 -68z m148 64 c-10 -27 -68 -101 -97 -124 -38 -30 -32 -12
9 28 27 26 34 39 29 58 -5 20 -3 23 14 18 14 -3 24 2 31 16 14 25 23 28 14 4z
m160 -15 c-9 -49 -25 -82 -17 -38 7 45 14 70 19 70 3 0 2 -15 -2 -32z m-267
-14 c-4 -14 -9 -24 -12 -21 -3 2 -2 17 2 31 3 15 9 25 11 22 3 -3 2 -17 -1
-32z m854 22 c0 -16 -18 -31 -27 -22 -8 8 5 36 17 36 5 0 10 -6 10 -14z
m-1688 -28 c-8 -8 -9 -4 -5 13 4 13 8 18 11 10 2 -7 -1 -18 -6 -23z m655 15
c-4 -3 -7 0 -7 7 0 7 3 10 7 7 3 -4 3 -10 0 -14z m66 2 c-3 -9 -8 -14 -10 -11
-3 3 -2 9 2 15 9 16 15 13 8 -4z m567 -22 c-11 -17 -11 -17 -6 0 3 10 6 24 7
30 0 9 2 9 5 0 3 -7 0 -20 -6 -30z m-1329 -21 c-11 -23 -26 -44 -32 -48 -7 -4
1 16 16 45 33 60 46 62 16 3z m459 38 c0 -5 -4 -10 -10 -10 -5 0 -10 5 -10 10
0 6 5 10 10 10 6 0 10 -4 10 -10z m57 -7 c-4 -3 -7 0 -7 7 0 7 3 10 7 7 3 -4
3 -10 0 -14z m93 -14 c0 -12 -27 -11 -35 1 -11 17 5 32 21 19 8 -6 14 -15 14
-20z m40 21 c0 -5 -4 -10 -10 -10 -5 0 -10 5 -10 10 0 6 5 10 10 10 6 0 10 -4
10 -10z m160 -37 c-13 -40 -30 -66 -30 -45 0 18 32 93 37 88 3 -3 0 -22 -7
-43z m256 25 c-4 -13 -9 -36 -11 -53 -5 -24 -4 -26 4 -10 5 11 12 33 16 49 4
19 9 26 16 19 7 -7 6 -19 -2 -37 -10 -22 -10 -29 0 -35 10 -7 10 -14 -3 -37
-13 -22 -15 -24 -11 -6 5 19 2 22 -19 22 -14 0 -26 4 -26 10 0 24 25 100 33
100 5 0 6 -10 3 -22z m-1686 -8 c0 -11 -7 -20 -15 -20 -8 0 -15 2 -15 4 0 2
-3 11 -6 20 -4 12 0 16 15 16 14 0 21 -6 21 -20z m537 -43 c-35 -55 -54 -73
-63 -64 -3 3 10 22 29 44 19 21 40 49 46 61 7 13 15 21 18 19 2 -3 -11 -30
-30 -60z m57 31 c-19 -39 -44 -68 -56 -68 -4 0 8 23 29 50 20 28 39 50 40 50
2 0 -4 -15 -13 -32z m1189 10 c-21 -93 -24 -100 -39 -88 -11 10 -14 9 -14 -8
0 -12 -4 -24 -10 -27 -13 -8 -13 -3 0 30 5 14 14 24 19 21 5 -3 14 17 21 44 7
28 16 50 20 50 4 0 6 -10 3 -22z m24 5 c-4 -3 -7 0 -7 7 0 7 3 10 7 7 3 -4 3
-10 0 -14z m-987 -48 c-18 -26 -34 -44 -37 -41 -3 2 10 25 28 50 42 60 51 51
9 -9z m233 34 c3 -11 1 -34 -5 -50 -6 -17 -7 -52 -4 -80 7 -48 6 -49 -14 -37
-38 24 -45 105 -14 157 21 36 30 39 37 10z m56 -68 c-9 -55 -10 -77 0 -97 19
-42 -20 -27 -41 16 -19 40 -12 102 17 146 28 44 39 16 24 -65z m260 10 l-1
-46 -13 45 c-17 61 -18 64 -16 75 1 6 8 1 16 -9 9 -11 15 -39 14 -65z m28 57
c-3 -8 -6 -5 -6 6 -1 11 2 17 5 13 3 -3 4 -12 1 -19z m-411 -34 c-3 -26 -6
-63 -6 -83 l-1 -36 -16 29 c-22 41 -9 136 19 136 7 0 9 -16 4 -46z m208 13
c33 -43 39 -126 11 -157 -23 -26 -39 -25 -65 3 -19 19 -21 29 -15 80 6 60 22
107 36 107 4 0 19 -15 33 -33z m129 4 c24 -41 21 -111 -5 -111 -6 0 -7 7 -4
15 3 9 -1 35 -9 58 -25 71 -14 93 18 38z m556 -20 c-7 -23 -16 -41 -20 -41 -4
0 -1 20 8 46 19 55 29 52 12 -5z m-1553 4 c-39 -35 -64 -46 -49 -22 4 6 8 15
8 19 0 3 4 10 9 15 5 5 6 3 2 -4 -11 -19 5 -15 34 7 41 32 38 22 -4 -15z
m1470 -11 c-4 -20 -10 -34 -13 -30 -3 3 -2 21 1 42 4 20 10 34 13 30 3 -3 2
-21 -1 -42z m-1077 2 c-7 -14 -16 -26 -20 -26 -5 0 0 13 9 29 20 36 27 34 11
-3z m564 -1 c28 -60 17 -127 -23 -140 -12 -4 -23 -5 -25 -3 -2 1 1 26 6 53 6
34 6 58 -2 77 -23 55 18 67 44 13z m1037 16 c0 -6 -4 -13 -10 -16 -5 -3 -10 1
-10 9 0 9 5 16 10 16 6 0 10 -4 10 -9z m-390 -9 c0 -5 -7 -17 -15 -28 -14 -18
-14 -17 -4 9 12 27 19 34 19 19z m-1897 -16 c12 -30 -17 -35 -33 -6 -9 17 -8
20 9 20 10 0 21 -6 24 -14z m707 -6 c-6 -11 -13 -20 -16 -20 -2 0 0 9 6 20 6
11 13 20 16 20 2 0 0 -9 -6 -20z m-390 -4 c0 -3 -5 -8 -12 -12 -7 -4 -8 -3 -4
4 7 12 16 16 16 8z m530 0 c0 -2 -8 -10 -17 -17 -16 -13 -17 -12 -4 4 13 16
21 21 21 13z m573 -30 c15 -12 16 -15 2 -26 -19 -16 -65 2 -65 25 0 19 38 19
63 1z m-733 -18 c25 -13 46 -31 48 -40 3 -15 -5 -18 -52 -18 -30 0 -58 -4 -61
-10 -4 -6 10 -10 34 -10 51 0 71 -8 71 -29 0 -25 -63 -51 -124 -51 -91 0 -186
46 -186 91 0 35 23 67 54 77 60 19 167 14 216 -10z m1570 7 c-7 -9 -15 -13
-17 -11 -7 7 7 26 19 26 6 0 6 -6 -2 -15z m-2222 -19 c3 -13 -1 -17 -14 -14
-11 2 -20 11 -22 22 -3 13 1 17 14 14 11 -2 20 -11 22 -22z m742 14 c0 -5 -5
-10 -11 -10 -5 0 -7 5 -4 10 3 6 8 10 11 10 2 0 4 -4 4 -10z m120 -5 c0 -9 -9
-15 -25 -15 -24 0 -32 10 -18 23 12 13 43 7 43 -8z m968 -8 c19 -15 14 -52
-10 -74 -13 -12 -47 -31 -76 -43 l-53 -23 -74 22 c-40 11 -83 21 -94 21 -33 0
-25 28 15 52 25 15 32 23 23 29 -8 4 -10 11 -6 15 3 4 12 2 20 -4 7 -6 23 -9
35 -5 36 9 72 -6 83 -34 7 -20 13 -23 21 -15 9 9 7 19 -9 41 l-22 28 67 0 c37
0 73 -4 80 -10z m-1478 -32 c-19 -19 -38 -35 -44 -35 -5 0 5 16 24 35 19 19
38 35 44 35 5 0 -5 -16 -24 -35z m420 16 c0 -5 -12 -17 -27 -26 l-28 -18 24
27 c26 28 31 31 31 17z m582 -8 c9 -10 19 -28 22 -40 11 -33 -15 -29 -47 7
-15 17 -22 30 -16 30 5 0 7 5 4 10 -11 17 21 11 37 -7z m-504 -25 c-18 -26
-38 -35 -38 -16 0 18 20 38 38 38 12 0 12 -3 0 -22z m-820 -12 c3 -12 -1 -17
-10 -14 -7 3 -15 13 -16 22 -3 12 1 17 10 14 7 -3 15 -13 16 -22z m2162 20 c0
-3 -4 -8 -10 -11 -5 -3 -10 -1 -10 4 0 6 5 11 10 11 6 0 10 -2 10 -4z m-874
-23 c16 -22 18 -73 3 -73 -6 0 -24 14 -40 31 -36 39 -44 34 -24 -14 20 -49 19
-77 -3 -77 -29 0 -59 27 -65 60 -11 51 -26 34 -20 -23 4 -41 2 -56 -11 -66
-13 -11 -18 -11 -29 1 -29 29 -47 64 -47 90 0 31 17 47 26 24 9 -22 21 -20 27
5 6 22 25 23 69 5 12 -5 16 -2 15 11 -2 14 5 18 36 18 26 0 36 4 32 13 -7 18
16 15 31 -5z m-966 3 c0 -2 -8 -10 -17 -17 -16 -13 -17 -12 -4 4 13 16 21 21
21 13z m533 -3 c-7 -2 -13 -18 -13 -34 0 -22 -5 -29 -20 -29 -11 0 -20 3 -20
6 0 14 42 64 53 63 9 0 8 -2 0 -6z m47 -12 c0 -4 12 -6 26 -3 l27 5 -32 -47
c-38 -54 -61 -60 -61 -15 0 34 15 69 30 69 6 0 10 -4 10 -9z m-570 -5 c0 -3
-5 -8 -12 -12 -7 -4 -8 -3 -4 4 7 12 16 16 16 8z m387 -18 c-3 -8 -6 -5 -6 6
-1 11 2 17 5 13 3 -3 4 -12 1 -19z m-684 -3 c4 -8 3 -16 -1 -19 -13 -8 -35 11
-28 23 10 15 23 14 29 -4z m950 -7 c-4 -21 -3 -22 10 -5 8 9 21 17 30 17 25 0
3 -60 -35 -94 l-32 -30 -7 34 c-8 39 -4 66 12 86 17 21 28 17 22 -8z m464 -8
c-4 -17 -2 -20 14 -15 10 4 19 4 19 2 0 -7 -132 -79 -136 -74 -2 2 14 14 37
26 22 13 38 25 35 28 -3 3 -26 -7 -51 -22 -26 -15 -49 -24 -52 -21 -3 3 24 20
61 38 36 18 66 36 66 40 0 5 -9 4 -19 -2 -30 -15 -39 -11 -11 5 34 20 43 18
37 -5z m673 16 c0 -3 -5 -8 -12 -12 -7 -4 -8 -3 -4 4 7 12 16 16 16 8z m-1783
-13 c-4 -3 -10 -3 -14 0 -3 4 0 7 7 7 7 0 10 -3 7 -7z m333 -35 c-14 -11 -34
-27 -45 -36 -36 -30 -107 -74 -112 -69 -2 3 17 20 44 38 26 18 65 48 86 66 22
19 42 32 45 28 4 -4 -4 -16 -18 -27z m55 -44 c-16 -30 -17 -39 -6 -56 16 -26
8 -34 -13 -13 -20 20 -20 42 -1 75 8 14 15 36 15 50 l1 25 12 -23 c9 -19 7
-30 -8 -58z m790 57 c-3 -5 2 -11 12 -13 10 -2 -2 -13 -35 -31 -59 -32 -70
-30 -17 3 19 12 34 24 34 28 -2 13 1 22 7 22 3 0 3 -4 -1 -9z m-1454 -14 c-1
-12 -15 -9 -19 4 -3 6 1 10 8 8 6 -3 11 -8 11 -12z m1515 -42 c-9 -14 -29 -27
-44 -30 -114 -24 -132 -40 -125 -113 4 -35 2 -44 -6 -36 -6 6 -12 34 -14 64
-2 61 2 65 106 95 46 13 60 22 74 48 13 25 18 28 21 14 2 -10 -4 -29 -12 -42z
m-1164 23 c-7 -7 -12 -8 -12 -2 0 14 12 26 19 19 2 -3 -1 -11 -7 -17z m244
-23 c-32 -25 -61 -45 -64 -45 -3 0 -3 2 -1 4 54 49 103 86 111 86 6 0 -15 -20
-46 -45z m134 3 c-19 -18 -27 -29 -17 -25 46 19 49 18 17 -6 -50 -36 -61 -12
-13 31 20 17 39 32 42 32 3 0 -10 -15 -29 -32z m-200 18 c0 -3 -15 -14 -32
-26 l-33 -22 28 26 c27 25 37 31 37 22z m-482 -29 c2 -10 -3 -17 -11 -17 -16
0 -30 24 -19 34 10 10 27 1 30 -17z m1072 -7 c0 -5 -4 -10 -10 -10 -5 0 -10 5
-10 10 0 6 5 10 10 10 6 0 10 -4 10 -10z m-329 -24 c-13 -13 -33 -23 -46 -22
-26 1 -24 11 8 28 20 10 21 10 8 -5 -19 -24 2 -21 24 3 10 11 20 20 23 20 3 0
-5 -11 -17 -24z m-201 10 c0 -3 -5 -8 -12 -12 -7 -4 -8 -3 -4 4 7 12 16 16 16
8z m237 -13 c-4 -3 -7 0 -7 7 0 7 3 10 7 7 3 -4 3 -10 0 -14z m191 -78 c3 -96
-3 -130 -18 -105 -14 23 -12 202 3 197 8 -2 13 -34 15 -92z m-930 67 c2 -7 -3
-12 -12 -12 -9 0 -16 7 -16 16 0 17 22 14 28 -4z m1072 3 c-14 -8 -29 -14 -35
-14 -5 0 1 6 15 14 14 8 30 14 35 14 6 0 -1 -6 -15 -14z m150 -1 c0 -8 -131
-66 -137 -60 -3 2 24 18 59 35 65 31 78 35 78 25z m-810 -8 c0 -2 -8 -10 -17
-17 -16 -13 -17 -12 -4 4 13 16 21 21 21 13z m345 -26 c-10 -11 -21 -18 -23
-15 -3 3 3 12 14 20 27 20 30 18 9 -5z m555 10 c-8 -5 -19 -10 -25 -10 -5 0
-3 5 5 10 8 5 20 10 25 10 6 0 3 -5 -5 -10z m-1272 -29 c3 -8 -1 -12 -9 -9 -7
2 -15 10 -17 17 -3 8 1 12 9 9 7 -2 15 -10 17 -17z m643 0 c14 -10 40 -25 60
-34 34 -14 85 -65 75 -75 -3 -2 -17 10 -31 27 -15 17 -34 31 -42 31 -8 0 -32
13 -52 29 -20 15 -43 31 -51 34 -13 5 -12 6 1 6 9 1 27 -8 40 -18z m503 5
c-23 -16 -123 -56 -139 -56 -15 1 22 21 85 47 63 26 83 29 54 9z m-747 -42
c33 -15 50 -29 47 -37 -2 -7 7 -18 23 -24 22 -9 24 -11 8 -12 -11 0 -47 11
-80 24 -33 14 -63 25 -67 25 -18 0 -6 -18 18 -29 32 -14 25 -25 -19 -25 -27
-1 -32 -5 -35 -28 -2 -16 1 -28 7 -28 6 0 11 9 11 21 0 12 5 19 13 16 6 -2 12
-18 12 -35 0 -48 11 -47 36 2 22 45 38 54 73 40 9 -3 16 -12 16 -20 0 -17 -5
-17 -30 -2 -16 10 -23 10 -37 -4 -16 -16 -15 -18 8 -27 l24 -9 -27 -7 c-40
-10 -38 -39 2 -31 17 3 30 1 30 -4 0 -26 23 -5 42 38 22 50 37 43 19 -10 -14
-39 -14 -58 -1 -58 6 0 16 21 22 46 7 26 18 48 24 51 16 6 64 -15 64 -28 0 -6
-7 -8 -15 -5 -8 3 -22 9 -30 12 -25 10 -8 -76 21 -106 13 -13 24 -20 24 -13 0
6 -7 16 -15 23 -17 14 -20 40 -5 40 6 0 13 -7 16 -15 9 -23 24 -18 24 9 0 35
10 56 26 56 16 0 19 -21 4 -36 -8 -8 -5 -20 7 -42 20 -36 38 -43 28 -12 -9 27
10 25 30 -2 13 -20 17 -21 25 -8 5 8 10 26 10 40 0 15 6 32 12 38 17 17 -2 29
-64 37 -29 4 -52 14 -58 23 -7 13 -12 14 -18 5 -13 -20 -86 4 -111 38 -26 34
-26 34 58 10 87 -24 208 -42 303 -43 65 -1 77 -4 81 -19 4 -16 -4 -19 -52 -25
l-57 -6 4 -32 c3 -17 9 -36 14 -43 5 -7 7 -21 3 -33 -8 -24 2 -26 27 -3 11 9
18 11 18 5 0 -7 7 -12 15 -12 11 0 15 12 15 49 0 52 6 59 54 56 39 -2 47 -24
9 -23 -54 1 -55 0 -38 -32 10 -18 23 -30 36 -30 11 0 29 -5 40 -10 18 -10 19
-7 19 47 0 41 3 54 10 43 5 -8 10 -32 10 -53 0 -27 4 -37 13 -34 6 2 11 12 11
21 -2 17 16 22 31 7 15 -13 95 -25 95 -13 0 20 -30 34 -59 27 -39 -8 -49 10
-11 24 23 7 30 16 30 35 0 20 5 26 21 26 17 0 20 -4 15 -24 -7 -30 -3 -33 49
-37 43 -4 44 -2 30 56 -6 28 -6 29 9 11 9 -11 16 -28 16 -37 0 -18 17 -35 26
-26 3 3 -1 25 -10 49 -13 39 -13 44 2 56 9 6 25 12 36 11 20 0 20 0 -1 -16
-30 -20 -29 -47 2 -61 24 -11 36 0 15 13 -5 3 -10 10 -10 16 0 16 25 10 43
-11 29 -35 38 -22 15 23 -13 23 -21 50 -20 60 4 24 -9 22 -110 -18 -133 -53
-213 -70 -263 -54 -34 10 -37 13 -20 20 11 4 31 8 45 8 14 1 43 6 64 12 30 8
36 13 25 21 -10 7 -5 8 19 4 34 -6 132 25 221 70 27 13 51 24 55 24 3 0 10
-17 16 -39 5 -21 21 -55 35 -75 14 -20 25 -40 25 -44 0 -14 -177 -101 -268
-131 -130 -43 -263 -63 -415 -63 -202 1 -369 39 -555 127 -108 51 -106 43 -39
154 47 78 43 77 134 35z m113 21 c-33 -19 -49 -19 -24 0 10 8 26 14 34 14 9 0
4 -6 -10 -14z m97 -12 c-4 -3 -7 0 -7 7 0 7 3 10 7 7 3 -4 3 -10 0 -14z m169
-10 c-10 -10 -19 5 -10 18 6 11 8 11 12 0 2 -7 1 -15 -2 -18z m44 -8 c-13 -14
-28 -25 -34 -25 -5 0 3 13 19 30 16 16 31 28 33 25 3 -3 -5 -16 -18 -30z m300
10 c-25 -13 -52 -24 -60 -24 -16 1 78 48 95 48 6 0 -10 -11 -35 -24z m-1080
-6 c0 -5 -4 -9 -10 -9 -5 0 -10 7 -10 16 0 8 5 12 10 9 6 -3 10 -10 10 -16z
m475 1 c-3 -5 -12 -10 -18 -10 -7 0 -6 4 3 10 19 12 23 12 15 0z m782 4 c-3
-3 -12 -4 -19 -1 -8 3 -5 6 6 6 11 1 17 -2 13 -5z m-717 -8 c0 -3 -5 -8 -12
-12 -7 -4 -8 -3 -4 4 7 12 16 16 16 8z m555 -14 c-38 -23 -152 -62 -179 -61
-12 0 3 7 32 15 29 7 76 25 105 38 62 29 84 33 42 8z m-1055 -12 c0 -5 -4 -10
-10 -10 -5 0 -10 5 -10 10 0 6 5 10 10 10 6 0 10 -4 10 -10z m950 0 c-8 -5
-24 -9 -35 -9 -16 1 -16 2 5 9 35 11 48 11 30 0z m-360 -14 c0 -3 -5 -8 -12
-12 -7 -4 -8 -3 -4 4 7 12 16 16 16 8z m40 0 c0 -3 -5 -8 -12 -12 -7 -4 -8 -3
-4 4 7 12 16 16 16 8z m257 -3 c-4 -3 -10 -3 -14 0 -3 4 0 7 7 7 7 0 10 -3 7
-7z m-850 -20 c-4 -3 -10 -3 -14 0 -3 4 0 7 7 7 7 0 10 -3 7 -7z m898 -63 c-3
-5 -13 -10 -21 -10 -8 0 -12 5 -9 10 3 6 13 10 21 10 8 0 12 -4 9 -10z m258
-11 c-4 -16 -8 -17 -14 -7 -13 19 -11 28 5 28 9 0 12 -7 9 -21z m-113 -13 c0
-3 -13 -11 -30 -20 -28 -14 -30 -13 -30 5 0 14 7 19 30 19 17 0 30 -2 30 -4z
m-440 -26 c0 -21 -15 -27 -25 -10 -7 12 2 30 16 30 5 0 9 -9 9 -20z m192 4 c3
-3 4 -14 1 -25 -8 -28 -33 -24 -33 6 0 23 18 34 32 19z m113 -44 c-3 -5 -10
-10 -16 -10 -5 0 -9 5 -9 10 0 6 7 10 16 10 8 0 12 -4 9 -10z"/>
<path d="M537 1626 c-8 -19 24 -30 62 -21 23 5 39 0 72 -24 l42 -31 -31 0
c-17 0 -43 5 -57 10 -23 9 -26 8 -23 -7 3 -16 15 -18 87 -17 75 1 81 0 60 -12
-30 -17 -62 -19 -39 -3 11 7 1 8 -35 3 -63 -8 -70 -14 -19 -15 32 0 36 -2 19
-10 -36 -17 46 -2 89 16 35 15 37 17 20 30 -10 7 -22 11 -26 9 -5 -3 -8 6 -8
20 0 14 -10 35 -22 46 -20 18 -24 19 -34 5 -9 -11 -22 -14 -57 -9 -26 4 -44
11 -41 15 3 5 -8 9 -24 9 -17 0 -32 -6 -35 -14z"/>
<path d="M800 1630 c0 -7 3 -10 7 -7 3 4 3 10 0 14 -4 3 -7 0 -7 -7z"/>
<path d="M839 1627 c5 -5 26 -7 47 -5 l39 3 -47 5 c-26 3 -43 1 -39 -3z"/>
<path d="M820 1580 c8 -5 24 -10 34 -10 26 0 18 6 -19 14 -22 5 -26 4 -15 -4z"/>
<path d="M455 1560 c-28 -7 -28 -8 -5 -9 14 0 32 4 40 9 17 11 8 11 -35 0z"/>
<path d="M480 1543 c-19 -3 -39 -9 -45 -15 -13 -13 66 -1 80 13 5 5 7 8 5 7
-3 0 -21 -3 -40 -5z"/>
<path d="M2148 1523 c-21 -5 -22 -12 -8 -47 13 -34 26 -33 45 4 9 17 22 30 30
30 8 0 15 5 15 10 0 10 -49 12 -82 3z"/>
<path d="M2220 1350 c0 -7 3 -10 7 -7 3 4 3 10 0 14 -4 3 -7 0 -7 -7z"/>
<path d="M452 1363 c-12 -2 -20 -9 -17 -14 9 -13 28 -11 51 6 20 15 13 17 -34
8z"/>
<path d="M647 1174 c-9 -15 -45 -114 -42 -114 2 0 17 18 34 39 25 31 29 44 23
62 -5 12 -11 18 -15 13z m13 -28 c0 -3 -5 -8 -12 -12 -7 -4 -8 -3 -4 4 7 12
16 16 16 8z"/>
<path d="M546 1035 c-8 -21 10 -27 28 -9 20 19 20 19 -3 21 -11 1 -22 -5 -25
-12z m24 1 c0 -3 -5 -8 -12 -12 -7 -4 -8 -3 -4 4 7 12 16 16 16 8z"/>
<path d="M2497 1148 c-30 -64 -60 -164 -54 -181 2 -6 17 15 32 48 32 71 66
185 54 185 -4 0 -19 -24 -32 -52z"/>
<path d="M1853 683 c4 -3 10 -3 14 0 3 4 0 7 -7 7 -7 0 -10 -3 -7 -7z"/>
<path d="M1395 290 c-3 -5 -1 -10 4 -10 6 0 11 5 11 10 0 6 -2 10 -4 10 -3 0
-8 -4 -11 -10z"/>
<path d="M1400 250 c0 -5 5 -10 10 -10 6 0 10 5 10 10 0 6 -4 10 -10 10 -5 0
-10 -4 -10 -10z"/>
<path d="M1523 2454 c-7 -18 17 -38 31 -24 11 11 1 40 -14 40 -6 0 -13 -7 -17
-16z"/>
<path d="M1824 2429 c-10 -17 13 -36 27 -22 12 12 4 33 -11 33 -5 0 -12 -5
-16 -11z"/>
<path d="M1243 2363 c3 -10 22 -65 41 -123 19 -58 44 -142 56 -187 12 -46 26
-83 31 -83 13 0 13 2 -32 165 -23 83 -44 166 -48 186 -10 45 -18 59 -38 59
-10 0 -13 -6 -10 -17z"/>
<path d="M1370 2365 c0 -10 7 -15 18 -13 21 4 19 22 -2 26 -10 2 -16 -3 -16
-13z"/>
<path d="M1533 2368 c-7 -8 -11 -88 -10 -208 0 -214 9 -191 25 65 9 137 6 169
-15 143z"/>
<path d="M1657 2373 c-12 -11 -8 -23 8 -23 8 0 15 7 15 15 0 16 -12 20 -23 8z"/>
<path d="M1789 2343 c-6 -16 -30 -80 -55 -143 -89 -229 -97 -250 -92 -255 6
-6 15 12 78 160 28 66 62 145 76 176 13 31 24 64 24 73 0 26 -20 19 -31 -11z"/>
<path d="M1383 2293 c4 -16 18 -91 33 -168 14 -77 31 -144 36 -150 7 -7 8 2 4
27 -8 42 -45 300 -46 311 0 4 -7 7 -16 7 -13 0 -15 -6 -11 -27z"/>
<path d="M1636 2293 c-2 -16 -10 -68 -16 -118 -6 -49 -16 -116 -21 -148 -6
-33 -8 -61 -5 -64 8 -8 11 5 36 142 12 66 25 139 29 162 5 23 6 45 3 48 -12
11 -21 4 -26 -22z"/>
<path d="M1100 2295 c0 -10 7 -15 18 -13 21 4 19 22 -2 26 -10 2 -16 -3 -16
-13z"/>
<path d="M1904 2266 c-8 -22 3 -33 18 -18 9 9 9 15 0 24 -9 9 -13 7 -18 -6z"/>
<path d="M2067 2274 c-4 -4 -4 -10 -1 -15 6 -10 34 0 34 12 0 10 -24 12 -33 3z"/>
<path d="M1150 2240 c0 -12 157 -247 170 -255 5 -3 -28 56 -72 130 -73 122
-98 154 -98 125z"/>
<path d="M1970 2159 c-36 -45 -75 -92 -87 -105 -69 -74 -143 -166 -143 -177 0
-6 16 6 35 28 101 114 229 254 260 284 33 33 37 51 12 51 -7 0 -41 -37 -77
-81z"/>
<path d="M1831 2155 c-23 -35 -41 -67 -41 -70 0 -4 -13 -25 -29 -48 -36 -53
-64 -108 -58 -113 3 -3 39 48 82 113 42 65 86 128 97 140 19 20 18 43 -2 43
-4 0 -27 -29 -49 -65z"/>
<path d="M873 2178 c2 -7 10 -13 17 -13 7 0 15 6 18 13 2 7 -5 12 -18 12 -13
0 -20 -5 -17 -12z"/>
<path d="M692 2118 c7 -19 38 -22 38 -4 0 10 -9 16 -21 16 -12 0 -19 -5 -17
-12z"/>
<path d="M2084 2099 c-10 -17 13 -36 27 -22 12 12 4 33 -11 33 -5 0 -12 -5
-16 -11z"/>
<path d="M2282 2079 c2 -6 8 -10 13 -10 5 0 11 4 13 10 2 6 -4 11 -13 11 -9 0
-15 -5 -13 -11z"/>
<path d="M1999 2027 c-20 -12 -42 -29 -51 -37 -8 -8 -32 -28 -53 -45 -49 -38
-125 -109 -105 -99 40 21 270 191 270 199 0 11 -27 3 -61 -18z"/>
<path d="M2165 2016 c-28 -18 -115 -72 -195 -120 -80 -48 -149 -92 -154 -97
-23 -22 15 -6 97 41 48 28 89 50 92 50 12 0 245 144 245 152 0 18 -37 7 -85
-26z"/>
<path d="M690 1970 c0 -13 7 -20 20 -20 13 0 20 7 20 20 0 13 -7 20 -20 20
-13 0 -20 -7 -20 -20z"/>
<path d="M2304 1916 c-8 -22 3 -33 18 -18 9 9 9 15 0 24 -9 9 -13 7 -18 -6z"/>
<path d="M2080 1844 c-91 -30 -174 -58 -185 -63 -11 -6 -30 -13 -43 -16 -13
-4 -21 -9 -19 -11 5 -5 427 112 435 120 5 6 -7 26 -16 25 -4 0 -81 -25 -172
-55z"/>
<path d="M542 1863 c2 -10 10 -18 18 -18 8 0 16 8 18 18 2 12 -3 17 -18 17
-15 0 -20 -5 -18 -17z"/>
<path d="M1253 1853 c-17 -6 -16 -23 1 -23 8 0 16 7 20 15 6 15 1 17 -21 8z"/>
<path d="M2467 1794 c-9 -10 2 -24 19 -24 8 0 14 7 14 15 0 15 -21 21 -33 9z"/>
<path d="M2245 1769 c-349 -50 -411 -61 -419 -69 -7 -7 9 -10 42 -10 29 0 52
4 52 9 0 11 93 24 315 46 189 19 195 20 195 35 0 13 -27 11 -185 -11z"/>
<path d="M670 1736 c0 -8 4 -17 9 -20 11 -7 33 18 24 27 -12 12 -33 7 -33 -7z"/>
<path d="M1947 1668 c-17 -11 10 -34 48 -42 41 -8 60 5 46 32 -8 15 -20 20
-46 19 -19 -1 -41 -4 -48 -9z"/>
<path d="M2286 1670 c6 -6 21 -6 39 -1 30 9 30 9 -9 10 -26 1 -37 -2 -30 -9z"/>
<path d="M2430 1665 c-11 -13 -8 -15 20 -15 21 0 30 4 28 13 -7 18 -33 20 -48
2z"/>
<path d="M1780 1660 c0 -14 35 -30 62 -29 13 0 18 3 11 5 -7 3 -9 12 -6 20 4
10 -4 14 -31 14 -20 0 -36 -4 -36 -10z"/>
<path d="M1080 1315 c0 -18 -5 -25 -20 -25 -12 0 -20 7 -20 16 0 11 -5 14 -16
10 -9 -3 -22 -6 -30 -6 -8 0 -14 -4 -14 -10 0 -5 9 -10 20 -10 23 0 54 -16 88
-44 12 -11 22 -14 22 -8 0 6 -5 14 -11 18 -6 3 -9 24 -7 45 2 22 0 39 -4 39
-5 0 -8 -11 -8 -25z"/>
<path d="M915 1260 c3 -5 8 -10 11 -10 2 0 4 5 4 10 0 6 -5 10 -11 10 -5 0 -7
-4 -4 -10z"/>
<path d="M1805 1220 c-35 -17 -36 -18 -10 -13 46 10 95 32 70 32 -11 0 -38 -8
-60 -19z"/>
<path d="M940 1224 c0 -8 32 -33 43 -34 4 0 3 9 -3 20 -10 18 -40 29 -40 14z"/>
<path d="M1005 1170 c3 -5 8 -10 11 -10 2 0 4 5 4 10 0 6 -5 10 -11 10 -5 0
-7 -4 -4 -10z"/>
</g>
</svg>
