<?xml version="1.0" standalone="no"?>
<!DOCTYPE svg PUBLIC "-//W3C//DTD SVG 20010904//EN"
 "http://www.w3.org/TR/2001/REC-SVG-20010904/DTD/svg10.dtd">
<svg version="1.0" xmlns="http://www.w3.org/2000/svg"
 width="122.000000pt" height="154.000000pt" viewBox="0 0 122.000000 154.000000"
 preserveAspectRatio="xMidYMid meet">
<metadata>
Created by potrace 1.10, written by Peter Selinger 2001-2011
</metadata>
<g transform="translate(0.000000,154.000000) scale(0.100000,-0.100000)"
fill="#003df5" stroke="none">
<path d="M515 1218 c-3 -7 -25 -74 -51 -148 -25 -74 -92 -271 -149 -438 l-104
-302 88 0 87 0 34 105 34 105 174 -2 174 -3 32 -100 32 -100 92 -3 91 -3 -24
68 c-13 37 -79 232 -148 433 -69 201 -128 373 -132 383 -6 15 -22 17 -116 17
-79 0 -111 -4 -114 -12z m172 -335 c28 -87 54 -168 58 -180 6 -23 6 -23 -120
-23 -97 0 -126 3 -122 13 2 6 29 87 58 179 30 93 59 168 65 168 6 0 33 -71 61
-157z"/>
</g>
</svg>
